<?xml version="1.0" encoding="UTF-8" standalone="no"?>
<!-- Created with Inkscape (http://www.inkscape.org/) -->

<svg
   xmlns:dc="http://purl.org/dc/elements/1.1/"
   xmlns:cc="http://creativecommons.org/ns#"
   xmlns:rdf="http://www.w3.org/1999/02/22-rdf-syntax-ns#"
   xmlns:svg="http://www.w3.org/2000/svg"
   xmlns="http://www.w3.org/2000/svg"
   xmlns:sodipodi="http://sodipodi.sourceforge.net/DTD/sodipodi-0.dtd"
   xmlns:inkscape="http://www.inkscape.org/namespaces/inkscape"
   width="271.11292mm"
   height="44.690201mm"
   viewBox="0 0 271.11291 44.690201"
   version="1.1"
   id="svg847"
   inkscape:version="0.92.3 (2405546, 2018-03-11)"
   sodipodi:docname="bar.svg">
  <defs
     id="defs841" />
  <sodipodi:namedview
     id="base"
     pagecolor="#ffffff"
     bordercolor="#666666"
     borderopacity="1.0"
     inkscape:pageopacity="0.0"
     inkscape:pageshadow="2"
     inkscape:zoom="0.24748737"
     inkscape:cx="378.29394"
     inkscape:cy="22.915478"
     inkscape:document-units="mm"
     inkscape:current-layer="layer1"
     showgrid="false"
     inkscape:window-width="1366"
     inkscape:window-height="705"
     inkscape:window-x="-8"
     inkscape:window-y="-8"
     inkscape:window-maximized="1"
     inkscape:measure-start="0,0"
     inkscape:measure-end="0,0" />
  <metadata
     id="metadata844">
    <rdf:RDF>
      <cc:Work
         rdf:about="">
        <dc:format>image/svg+xml</dc:format>
        <dc:type
           rdf:resource="http://purl.org/dc/dcmitype/StillImage" />
        <dc:title />
      </cc:Work>
    </rdf:RDF>
  </metadata>
  <g
     inkscape:label="Layer 1"
     inkscape:groupmode="layer"
     id="layer1"
     transform="translate(167.98212,-110.20618)">
    <g
       transform="matrix(0.26458333,0,0,0.26458333,-167.97796,112.11833)"
       id="Layer_2"
       data-name="Layer 2">
      <g
         id="Layer_1-2"
         data-name="Layer 1">
        <path
           inkscape:connector-curvature="0"
           d="m 135.33,35 a 2.81,2.81 0 0 0 -2.78,-2.37 h -18.73 a 37.88,37.88 0 0 0 -75,0 H 20.07 A 2.81,2.81 0 0 0 17.29,35 L 0,144.38 A 1.41,1.41 0 0 0 1.41,146 h 149.81 a 1.4,1.4 0 0 0 1.39,-1.62 z m -59,-24.14 a 27.07,27.07 0 0 1 26.53,21.77 H 49.78 A 27.07,27.07 0 0 1 76.31,10.82 Z M 137.2,135.45 H 15.44 A 2.81,2.81 0 0 1 12.66,132.2 L 26.34,45.55 a 2.81,2.81 0 0 1 2.78,-2.37 h 94.39 a 2.81,2.81 0 0 1 2.78,2.37 L 140,132.17 a 2.81,2.81 0 0 1 -2.82,3.25 z"
           id="path818" />
      </g>
    </g>
    <g
       transform="matrix(0.26458333,0,0,0.26458333,-48.706765,110.98049)"
       id="Layer_2-6"
       data-name="Layer 2">
      <g
         id="Layer_1-2-6"
         data-name="Layer 1">
        <path
           inkscape:connector-curvature="0"
           d="m 145,143.17 a 73.41,73.41 0 0 0 -54.44,-60.36 43.93,43.93 0 1 0 -39,0.92 73.39,73.39 0 0 0 -51.2,59.44 L 0,145.48 A 3.08,3.08 0 0 0 3.08,149 h 139.19 a 3.08,3.08 0 0 0 3.05,-3.52 z M 36.41,43.93 A 33.72,33.72 0 1 1 70.13,77.65 33.76,33.76 0 0 1 36.41,43.93 m -20.75,94.85 a 3.08,3.08 0 0 1 -3,-4 62.85,62.85 0 0 1 119.94,0 3.08,3.08 0 0 1 -3,4 z"
           id="path922" />
      </g>
    </g>
    <g
       transform="matrix(0.08241727,0,0,0.08241727,-111.73951,110.656)"
       id="g1002">
      <g
         id="g1000">
        <path
           inkscape:connector-curvature="0"
           d="M 474.644,74.27 C 449.391,45.616 414.358,29.836 376,29.836 c -53.948,0 -88.103,32.22 -107.255,59.25 C 263.776,96.1 259.549,103.133 256,109.751 252.451,103.133 248.225,96.1 243.255,89.086 224.103,62.056 189.948,29.836 136,29.836 97.642,29.836 62.609,45.617 37.355,74.271 13.267,101.605 0,138.213 0,177.351 c 0,42.603 16.633,82.228 52.345,124.7 31.917,37.96 77.834,77.088 131.005,122.397 19.813,16.884 40.302,34.344 62.115,53.429 l 0.655,0.574 c 2.828,2.476 6.354,3.713 9.88,3.713 3.526,0 7.052,-1.238 9.88,-3.713 l 0.655,-0.574 c 21.813,-19.085 42.302,-36.544 62.118,-53.431 C 381.821,379.14 427.738,340.012 459.655,302.051 495.367,259.578 512,219.954 512,177.351 512,138.213 498.733,101.605 474.644,74.27 Z M 309.193,401.614 C 292.113,416.168 274.535,431.147 256,447.26 237.466,431.149 219.887,416.169 202.804,401.612 98.745,312.939 30,254.358 30,177.351 30,145.521 40.605,115.957 59.862,94.106 79.34,72.007 106.379,59.836 136,59.836 c 41.129,0 67.716,25.338 82.776,46.594 13.509,19.064 20.558,38.282 22.962,45.659 2.011,6.175 7.768,10.354 14.262,10.354 6.494,0 12.251,-4.179 14.262,-10.354 2.404,-7.377 9.453,-26.595 22.962,-45.66 15.06,-21.255 41.647,-46.593 82.776,-46.593 29.621,0 56.66,12.171 76.137,34.27 19.258,21.851 29.863,51.415 29.863,83.245 0,77.007 -68.745,135.588 -172.807,224.263 z"
           id="path998" />
      </g>
    </g>
    <g
       transform="matrix(0.0404721,0,0,0.0404721,6.16482,112.78528)"
       id="g1082">
      <g
         id="g1080">
        <path
           inkscape:connector-curvature="0"
           d="M 346.9,500 H 40.6 V 377.5 H 346.8 V 255 L 530.6,438.8 346.9,622.5 Z M 959.4,10 V 806.3 L 591.9,990 V 806.3 H 224.4 v -245 h 61.3 V 745 H 592 V 193.8 L 837,71.3 H 285.6 v 245 H 224.3 V 10 Z"
           id="path1078" />
      </g>
    </g>
    <path
       inkscape:connector-curvature="0"
       d="m 84.339753,113.1311 c -10.259925,0 -18.58202,8.81264 -18.58202,19.67734 0,10.86471 8.322095,19.6773 18.58202,19.6773 10.259924,0 18.581987,-8.81259 18.581987,-19.6773 0,-10.8647 -8.322063,-19.67734 -18.581987,-19.67734 z m 0,36.54363 c -8.786625,0 -15.927431,-7.56173 -15.927431,-16.86629 0,-9.3046 7.140806,-16.86628 15.927431,-16.86628 8.786624,0 15.927427,7.56168 15.927427,16.86628 0,9.30456 -7.140803,16.86629 -15.927427,16.86629 z m 7.963715,-18.27184 v 2.81106 h -6.636447 v 7.02763 h -2.654588 v -7.02763 h -6.636396 v -2.81106 h 6.636396 v -7.02759 h 2.654588 v 7.02759 z"
       id="_x3C_trazado_x3E_"
       style="stroke-width:1.36584461"
       inkscape:transform-center-x="23.001826"
       inkscape:transform-center-y="-47.098981" />
  </g>
</svg>
