<?xml version="1.0" encoding="UTF-8" standalone="no"?>
<!-- Created with Inkscape (http://www.inkscape.org/) -->

<svg
   xmlns:dc="http://purl.org/dc/elements/1.1/"
   xmlns:cc="http://creativecommons.org/ns#"
   xmlns:rdf="http://www.w3.org/1999/02/22-rdf-syntax-ns#"
   xmlns:svg="http://www.w3.org/2000/svg"
   xmlns="http://www.w3.org/2000/svg"
   xmlns:sodipodi="http://sodipodi.sourceforge.net/DTD/sodipodi-0.dtd"
   xmlns:inkscape="http://www.inkscape.org/namespaces/inkscape"
   width="643.23456mm"
   height="105.77129mm"
   viewBox="0 0 643.23456 105.77128"
   version="1.1"
   id="svg110"
   inkscape:version="0.92.3 (2405546, 2018-03-11)"
   sodipodi:docname="drawing.svg">
  <defs
     id="defs104" />
  <sodipodi:namedview
     id="base"
     pagecolor="#ffffff"
     bordercolor="#666666"
     borderopacity="1.0"
     inkscape:pageopacity="0.0"
     inkscape:pageshadow="2"
     inkscape:zoom="0.35"
     inkscape:cx="1279.4285"
     inkscape:cy="194.33695"
     inkscape:document-units="mm"
     inkscape:current-layer="layer1"
     showgrid="false"
     inkscape:window-width="1366"
     inkscape:window-height="705"
     inkscape:window-x="-8"
     inkscape:window-y="-8"
     inkscape:window-maximized="1" />
  <metadata
     id="metadata107">
    <rdf:RDF>
      <cc:Work
         rdf:about="">
        <dc:format>image/svg+xml</dc:format>
        <dc:type
           rdf:resource="http://purl.org/dc/dcmitype/StillImage" />
        <dc:title></dc:title>
      </cc:Work>
    </rdf:RDF>
  </metadata>
  <g
     inkscape:label="Layer 1"
     inkscape:groupmode="layer"
     id="layer1"
     transform="translate(232.68213,-94.480358)">
    <g
       id="g65"
       transform="matrix(0.20847749,0,0,0.20469159,-259.36725,95.449553)">
      <g
         id="g63">
        <path
           d="m 288,176 v -64 c 0,-17.664 14.336,-32 32,-32 h 32 V 0 h -64 c -53.024,0 -96,42.976 -96,96 v 80 h -64 v 80 h 64 v 256 h 96 V 256 h 64 l 32,-80 z"
           id="path61"
           inkscape:connector-curvature="0" />
      </g>
    </g>
    <g
       id="g192"
       transform="matrix(0.20552455,0,0,0.20552455,-135.46672,94.480358)">
      <g
         id="g190">
        <path
           inkscape:connector-curvature="0"
           d="M 352,0 H 160 C 71.648,0 0,71.648 0,160 v 192 c 0,88.352 71.648,160 160,160 h 192 c 88.352,0 160,-71.648 160,-160 V 160 C 512,71.648 440.352,0 352,0 Z m 112,352 c 0,61.76 -50.24,112 -112,112 H 160 C 98.24,464 48,413.76 48,352 V 160 C 48,98.24 98.24,48 160,48 h 192 c 61.76,0 112,50.24 112,112 z"
           id="path188" />
      </g>
    </g>
    <path
       inkscape:connector-curvature="0"
       d="m -82.852386,120.7875 c -14.528119,0 -26.307194,11.77903 -26.307194,26.30715 0,14.52812 11.779075,26.30714 26.307194,26.30714 14.52812,0 26.307143,-11.77902 26.307143,-26.30714 0,-14.52812 -11.779023,-26.30715 -26.307143,-26.30715 z m 0,42.74912 c -9.06281,0 -16.441963,-7.37916 -16.441963,-16.44197 0,-9.06939 7.379153,-16.44197 16.441963,-16.44197 9.062811,0 16.441965,7.37258 16.441965,16.44197 0,9.06281 -7.379154,16.44197 -16.441965,16.44197 z"
       id="path194"
       style="stroke-width:0.20552455" />
    <circle
       cx="-54.572212"
       cy="118.81446"
       r="3.5054269"
       id="circle200"
       style="stroke-width:0.20552455" />
    <g
       id="g317"
       transform="matrix(0.2348268,0,0,0.2348268,9.3563648,87.961721)">
      <g
         id="g315">
        <path
           d="m 512,97.248 c -19.04,8.352 -39.328,13.888 -60.48,16.576 21.76,-12.992 38.368,-33.408 46.176,-58.016 -20.288,12.096 -42.688,20.64 -66.56,25.408 C 411.872,60.704 384.416,48 354.464,48 296.352,48 249.568,95.168 249.568,152.992 c 0,8.32 0.704,16.32 2.432,23.936 C 164.736,172.672 87.52,130.848 35.648,67.136 26.592,82.848 21.28,100.832 21.28,120.192 c 0,36.352 18.72,68.576 46.624,87.232 -16.864,-0.32 -33.408,-5.216 -47.424,-12.928 0,0.32 0,0.736 0,1.152 0,51.008 36.384,93.376 84.096,103.136 -8.544,2.336 -17.856,3.456 -27.52,3.456 -6.72,0 -13.504,-0.384 -19.872,-1.792 13.6,41.568 52.192,72.128 98.08,73.12 -35.712,27.936 -81.056,44.768 -130.144,44.768 -8.608,0 -16.864,-0.384 -25.12,-1.44 C 46.496,446.88 101.6,464 161.024,464 c 193.152,0 298.752,-160 298.752,-298.688 0,-4.64 -0.16,-9.12 -0.384,-13.568 C 480.224,136.96 497.728,118.496 512,97.248 Z"
           id="path313"
           inkscape:connector-curvature="0" />
      </g>
    </g>
    <g
       id="g438"
       transform="matrix(0.19915934,0,0,0.19915934,165.44699,96.4281)">
      <g
         id="g436">
        <path
           d="M 262.948,0 C 122.628,0 48.004,89.92 48.004,187.968 c 0,45.472 25.408,102.176 66.08,120.16 6.176,2.784 9.536,1.6 10.912,-4.128 1.216,-4.352 6.56,-25.312 9.152,-35.2 0.8,-3.168 0.384,-5.92 -2.176,-8.896 -13.504,-15.616 -24.224,-44.064 -24.224,-70.752 0,-68.384 54.368,-134.784 146.88,-134.784 80,0 135.968,51.968 135.968,126.304 0,84 -44.448,142.112 -102.208,142.112 -31.968,0 -55.776,-25.088 -48.224,-56.128 9.12,-36.96 27.008,-76.704 27.008,-103.36 0,-23.904 -13.504,-43.68 -41.088,-43.68 -32.544,0 -58.944,32.224 -58.944,75.488 0,27.488 9.728,46.048 9.728,46.048 0,0 -32.192,130.048 -38.176,154.336 -10.112,41.12 1.376,107.712 2.368,113.44 0.608,3.168 4.16,4.16 6.144,1.568 3.168,-4.16 42.08,-59.68 52.992,-99.808 3.968,-14.624 20.256,-73.92 20.256,-73.92 10.72,19.36 41.664,35.584 74.624,35.584 98.048,0 168.896,-86.176 168.896,-193.12 C 463.62,76.704 375.876,0 262.948,0 Z"
           id="path434"
           inkscape:connector-curvature="0" />
      </g>
    </g>
    <g
       transform="matrix(0.23618623,0,0,0.23618623,294.05908,94.638941)"
       id="g541">
      <path
         inkscape:connector-curvature="0"
         d="m 288.078,367.164 c -12.748,0 -23.887,-2.95 -33.4,-8.85 -7.427,-4.381 -12.368,-10.089 -14.842,-17.132 -2.673,-6.852 -4.001,-23.223 -4.001,-49.115 V 179.58 H 339.756 V 110.774 H 235.834 V 0 h -62.53 c -2.856,22.458 -7.992,41.109 -15.415,55.963 -7.424,14.655 -17.227,27.218 -29.408,37.685 -12.183,10.282 -26.934,18.276 -44.255,23.984 v 61.955 h 48.535 v 153.889 c 0,20.365 2.096,35.69 6.28,45.967 3.999,10.283 11.519,20.272 22.557,29.981 11.419,9.514 24.554,16.652 39.399,21.406 15.418,5.14 33.12,7.713 53.105,7.713 18.274,0 34.735,-1.813 49.392,-5.428 14.466,-3.237 31.409,-9.424 50.823,-18.562 V 345.46 c -21.892,14.473 -43.968,21.704 -66.239,21.704 z"
         id="path539" />
    </g>
  </g>
</svg>
